<?xml version="1.0" encoding="UTF-8"?>
<svg class="" width="24" height="24" enable-background="new 0 0 512 512" version="1.1" viewBox="0 0 512 512.01" xml:space="preserve" xmlns="http://www.w3.org/2000/svg"><g fill="#000"><path class="" d="m147.32 364.69c-6.25-6.25-16.383-6.25-22.633 0l-120 120c-6.25 6.25-6.25 16.383 0 22.633s16.383 6.25 22.633 0l120-120c6.25-6.25 6.25-16.383 0-22.633z" data-original="#000000" xmlns="http://www.w3.org/2000/svg"/><path class="" d="m228.68 388.69-48 48c-6.2461 6.25-6.2461 16.383 0.003906 22.629 6.25 6.25 16.383 6.2461 22.629-0.003906l48-48c6.2461-6.25 6.2461-16.379-0.003906-22.629-6.25-6.2461-16.383-6.2422-22.629 0.003906z" data-original="#000000" xmlns="http://www.w3.org/2000/svg"/><path class="" d="m64.004 336c4.2461 0.007812 8.3203-1.6797 11.32-4.6875l48-48c6.2461-6.25 6.2461-16.379-0.003907-22.629-6.25-6.2461-16.379-6.2422-22.629 0.003906l-48 48c-4.5742 4.5781-5.9414 11.457-3.4648 17.438 2.4766 5.9766 8.3086 9.875 14.777 9.875z" data-original="#000000" xmlns="http://www.w3.org/2000/svg"/><path class="" d="m512 16.418c0.027344-1.2969-0.097656-2.5898-0.36719-3.8555-0.066407-0.25781-0.16016-0.50391-0.23438-0.76172-0.28125-1.0352-0.66406-2.0352-1.1484-2.9922-0.16016-0.3125-0.30469-0.60938-0.48047-0.91016-0.66406-1.1641-1.4688-2.2383-2.4023-3.2031-0.95703-0.92969-2.0352-1.7383-3.1992-2.3984-0.32031-0.19141-0.64062-0.34375-0.96875-0.50391-0.92578-0.46875-1.8945-0.84375-2.8945-1.1211-0.30469-0.10156-0.60156-0.20703-0.89453-0.26953-1.2461-0.28125-2.5195-0.41797-3.793-0.40234-0.3125 0-0.61719 0.074219-0.92188 0.097656-1.082 0.078125-2.1562 0.27344-3.1992 0.58203-0.19922 0.058593-0.39062 0.042968-0.59375 0.10547l-384 128c-5.2617 1.7539-9.2383 6.1055-10.516 11.504-1.2734 5.3984 0.33984 11.07 4.2617 14.992l256 256c3.9219 3.9219 9.5938 5.5352 14.992 4.2617 5.3984-1.2773 9.75-5.2539 11.504-10.52l128-384c0.0625-0.19141 0.046874-0.39063 0.11328-0.58203 0.30078-1.043 0.49609-2.1172 0.58203-3.1992 0.0625-0.27344 0.16016-0.54688 0.16016-0.82422zm-75.199 36.191-196.8 196.76-98.398-98.398zm-75.801 317.79-98.367-98.402 196.75-196.8z" data-original="#000000" xmlns="http://www.w3.org/2000/svg"/><path class="" d="m187.36 347.28c2.9648-3.0078 4.6289-7.0586 4.6406-11.281-0.003906-4.2383-1.7031-8.3008-4.7188-11.277-6.3242-6.0039-16.238-6.0039-22.562 0-3.0273 2.9688-4.7305 7.0352-4.7188 11.277-0.003906 6.4883 3.9062 12.336 9.9023 14.805 5.9961 2.4727 12.891 1.082 17.457-3.5234z" data-original="#000000" xmlns="http://www.w3.org/2000/svg"/><path class="" d="m132.64 484.72c-4.5586 4.582-5.9102 11.461-3.4219 17.43 2.4844 5.9688 8.3164 9.8555 14.781 9.8477 8.8086-0.0625 15.934-7.1914 16-16-0.015625-4.2578-1.7148-8.3398-4.7188-11.359-6.3906-5.9375-16.293-5.9023-22.641 0.082031z" data-original="#000000" xmlns="http://www.w3.org/2000/svg"/><path class="" d="m16.004 384c8.8359 0 16-7.1641 16-16-0.003906-4.2383-1.7031-8.3008-4.7188-11.277-6.3555-6-16.285-6-22.641 0-2.9648 3.0078-4.6289 7.0547-4.6406 11.277 0.023438 4.2461 1.6875 8.3125 4.6406 11.359 3.0391 2.9688 7.1133 4.6328 11.359 4.6406z" data-original="#000000" xmlns="http://www.w3.org/2000/svg"/></g></svg>
