<?xml version="1.0" encoding="UTF-8"?>
<svg class="" width="24" height="24" enable-background="new 0 0 512 512" version="1.1" viewBox="0 0 512 512" xml:space="preserve" xmlns="http://www.w3.org/2000/svg"><g fill="#000" xmlns="http://www.w3.org/2000/svg"><path class="" d="m377 26.992c-74.439 0-135 60.561-135 135s60.561 135 135 135 135-60.561 135-135-60.561-135-135-135zm0 240c-57.897 0-105-47.103-105-105s47.103-105 105-105 105 47.103 105 105-47.103 105-105 105z" data-original="#000000"/><circle class="" cx="339.5" cy="116.99" r="15" data-original="#000000"/><circle class="" cx="414.5" cy="206.99" r="15" data-original="#000000"/><path class="" d="m424.1 105.47c-6.364-5.303-15.823-4.444-21.126 1.921l-75 90c-5.303 6.364-4.443 15.822 1.921 21.126 6.349 5.291 15.81 4.459 21.126-1.921l75-90c5.303-6.364 4.443-15.822-1.921-21.126z" data-original="#000000"/><path class="" d="m440.851 314.934-65.277 48.214c-6.367 4.548-13.346 8.005-20.649 10.344 3.879-11.228 3.22-23.263-1.916-34.031-5.311-11.133-14.68-19.413-26.415-23.325l-130.314-43.115c-39.219-13.077-91.979-7.421-127.2 23.972h-54.08c-8.284 0-15 6.716-15 15v150c0 8.284 6.716 15 15 15h60c8.284 0 15-6.716 15-15v-11.209l117.65 26.735c21.455 4.912 43.444 7.49 63.792 7.49.93 0 1.857-.005 2.78-.016 56.932-.666 111.917-18.798 159.013-52.435l59.925-44.389c20.981-14.984 25.094-44.59 8.984-64.728-14.926-18.658-41.849-22.395-61.293-8.507zm-380.851 132.058h-30v-120h30zm415.723-83.236-59.925 44.388c-42.08 30.055-91.157 46.255-141.927 46.849-18.77.225-39.365-2.104-59.55-6.724l-124.321-28.25v-101.481c32.321-28.054 76.939-23.676 96.825-17.047l130.313 43.115c3.9 1.3 7.023 4.06 8.794 7.771 1.77 3.711 1.95 7.875.506 11.724-2.846 7.589-11.097 11.527-18.788 8.963-.015-.005-.031-.008-.046-.013l-91.905-30.304c-7.866-2.593-16.348 1.681-18.943 9.548-2.594 7.868 1.681 16.349 9.548 18.943l92.472 30.491c31.763 10.587 66.99 5.29 94.234-14.17l65.276-48.214c6.48-4.63 15.455-3.383 20.43 2.835 5.362 6.701 4.044 16.55-2.993 21.576z" data-original="#000000"/></g></svg>
