<?xml version="1.0" encoding="UTF-8"?>
<svg class="" width="50" height="40" enable-background="new 0 0 512 512" version="1.1" viewBox="0 0 64 64" xml:space="preserve" xmlns="http://www.w3.org/2000/svg"><g fill="#000"><path class="" d="m37 12h3a1 1 0 0 0 0.747-1.664l-8-9a1.03 1.03 0 0 0-1.494 0l-8 9a1 1 0 0 0 0.747 1.664h3v14h2v-15a1 1 0 0 0-1-1h-1.773l5.773-6.495 5.773 6.495h-1.773a1 1 0 0 0-1 1v11h2z" data-original="#000000" xmlns="http://www.w3.org/2000/svg"/><path class="" d="m35 24h2v2h-2z" data-original="#000000" xmlns="http://www.w3.org/2000/svg"/><path class="" d="m1.09 20.413a1 1 0 0 0 .91.587h3v13h2v-14a1 1 0 0 0 -1-1h-1.8l4.8-5.481 4.8 5.481h-1.8a1 1 0 0 0 -1 1v10h2v-9h3a1 1 0 0 0 .753-1.658l-7-8a1.03 1.03 0 0 0 -1.506 0l-7 8a1 1 0 0 0 -.157 1.071z" data-original="#000000" xmlns="http://www.w3.org/2000/svg"/><path class="" d="m11 32h2v2h-2z" data-original="#000000" xmlns="http://www.w3.org/2000/svg"/><path class="" d="m62.91 20.413a1 1 0 0 0-0.157-1.071l-7-8a1.03 1.03 0 0 0-1.506 0l-7 8a1 1 0 0 0 0.753 1.658h3v13h2v-14a1 1 0 0 0-1-1h-1.8l4.8-5.481 4.8 5.481h-1.8a1 1 0 0 0-1 1v10h2v-9h3a1 1 0 0 0 0.91-0.587z" data-original="#000000" xmlns="http://www.w3.org/2000/svg"/><path class="" d="m57 32h2v2h-2z" data-original="#000000" xmlns="http://www.w3.org/2000/svg"/><path class="" d="m57 63v-2h-3v-16a1 1 0 0 0-1-1h-11v-8a1 1 0 0 0-1-1h-18a1 1 0 0 0-1 1v8h-11a1 1 0 0 0-1 1v16h-3v2zm-15-17h10v15h-10zm-20 15h-10v-15h10zm18 0h-16v-24h16z" data-original="#000000" xmlns="http://www.w3.org/2000/svg"/><path class="" d="m32.75 49h-1.5a1.147 1.147 0 0 1-1.25-1h-2a3.1 3.1 0 0 0 3 2.977v1.023h2v-1.023a3.1 3.1 0 0 0 3-2.977 3.136 3.136 0 0 0-3.25-3h-1.5a1.025 1.025 0 1 1 0-2h1.5a1.162 1.162 0 0 1 1.25 1h2a3.1 3.1 0 0 0-3-2.977v-1.023h-2v1.023a3.1 3.1 0 0 0-3 2.977 3.136 3.136 0 0 0 3.25 3h1.5a1.025 1.025 0 1 1 0 2z" data-original="#000000" xmlns="http://www.w3.org/2000/svg"/></g></svg>
