<?xml version="1.0" encoding="UTF-8"?>
<svg class="" width="24" height="24" enable-background="new 0 0 512 512" version="1.1" viewBox="0 0 512 512" xml:space="preserve" xmlns="http://www.w3.org/2000/svg"><path class="" d="m232.17 89.539c6.248 6.248 6.248 16.379 0 22.627s-16.379 6.248-22.627 0l-57.54-57.54v441.37c0 8.837-7.163 16-16 16s-16-7.163-16-16v-441.37l-57.539 57.538c-3.124 3.124-7.22 4.686-11.313 4.687-4.096 0-8.189-1.562-11.313-4.687-6.248-6.248-6.248-16.379 0-22.627l84.854-84.853c6.249-6.249 16.38-6.249 22.627 0zm240 310.29c-6.248-6.248-16.379-6.248-22.627 0l-57.539 57.539v-441.37c0-8.837-7.163-16-16-16s-16 7.163-16 16v441.37l-57.539-57.541c-6.246-6.248-16.377-6.249-22.627 0-6.248 6.248-6.249 16.379 0 22.627l84.852 84.854c3 3.001 7.07 4.687 11.313 4.687s8.313-1.687 11.313-4.687l84.854-84.854c6.248-6.248 6.248-16.379 0-22.627z" fill="#000" data-original="#000000" xmlns="http://www.w3.org/2000/svg"/></svg>
