<?xml version="1.0" encoding="UTF-8"?>
<svg class="" width="24" height="24" enable-background="new 0 0 512 512" version="1.1" viewBox="0 0 48 48" xml:space="preserve" xmlns="http://www.w3.org/2000/svg"><path class="" d="m46 25.695v-14.695c0-.552-.448-1-1-1h-42c-.552 0-1 .448-1 1v26c0 .552.448 1 1 1h24.792c1.966 3.006 5.356 5 9.208 5 6.065 0 11-4.935 11-11 0-2.346-.744-4.517-2-6.305zm-2-13.695v11.521c-.613-.507-1.286-.941-2-1.307v-7.214c0-.552-.448-1-1-1h-7.221c-.783-.766-1.661-1.433-2.605-2zm-6.349 9.033c-.4-1.834-1.135-3.543-2.178-5.033h4.527v5.426c-.754-.214-1.54-.345-2.349-.393zm-33.651 14.967v-24h12.826c-.945.567-1.822 1.234-2.605 2h-7.221c-.552 0-1 .448-1 1v18c0 .552.448 1 1 1h7.221c.783.766 1.661 1.433 2.605 2zm8.527-20c-1.588 2.27-2.527 5.026-2.527 8s.939 5.73 2.527 8h-4.527v-16zm11.473 20c-6.617 0-12-5.383-12-12s5.383-12 12-12c5.613 0 10.324 3.88 11.626 9.095-3.011.378-5.641 1.975-7.389 4.283-.712-1.151-1.868-1.998-3.237-2.277v-5.917c1.161.414 2 1.514 2 2.816 0 .552.448 1 1 1s1-.448 1-1c0-2.414-1.721-4.434-4-4.899v-1.101c0-.552-.448-1-1-1s-1 .448-1 1v1.101c-2.279.465-4 2.484-4 4.899s1.721 4.434 4 4.899v5.917c-1.161-.414-2-1.514-2-2.816 0-.552-.448-1-1-1s-1 .448-1 1c0 2.414 1.721 4.434 4 4.899v1.101c0 .552.448 1 1 1s1-.448 1-1v-1.101c.36-.073.703-.19 1.028-.34.056 1.097.27 2.15.625 3.14-.854.194-1.741.301-2.653.301zm1-5.184v-5.631c1.017.362 1.786 1.25 1.962 2.339-.355.793-.617 1.634-.776 2.513-.326.344-.729.616-1.186.779zm-2-13.632v5.631c-1.161-.414-2-1.514-2-2.816s.839-2.401 2-2.815zm14 23.816c-4.962 0-9-4.038-9-9s4.038-9 9-9 9 4.038 9 9-4.037 9-9 9zm4.707-5.707c.391.391.391 1.023 0 1.414s-1.023.391-1.414 0l-3.293-3.293-3.293 3.293c-.391.391-1.023.391-1.414 0s-.391-1.023 0-1.414l3.293-3.293-3.293-3.293c-.391-.391-.391-1.023 0-1.414s1.023-.391 1.414 0l3.293 3.293 3.293-3.293c.391-.391 1.023-.391 1.414 0s.391 1.023 0 1.414l-3.293 3.293z" fill="#000" data-original="#000000" xmlns="http://www.w3.org/2000/svg"/></svg>
