<?xml version="1.0" encoding="UTF-8"?>
<svg class="" width="50" height="40" enable-background="new 0 0 512 512" version="1.1" viewBox="0 0 512 512" xml:space="preserve" xmlns="http://www.w3.org/2000/svg"><g fill="#000"><path class="" d="m89.93 302.16h29.977v29.977h-29.977z" data-original="#000000" xmlns="http://www.w3.org/2000/svg"/><path class="" d="m179.86 392.09h29.977v29.977h-29.977z" data-original="#000000" xmlns="http://www.w3.org/2000/svg"/><path class="" d="m205.45 327.75-89.93 89.93-21.199-21.199 89.93-89.93z" data-original="#000000" xmlns="http://www.w3.org/2000/svg"/><path class="" d="m149.88 512c82.648 0 149.89-67.238 149.89-149.88 0-61.34-37.043-114.18-89.93-137.36v-73.48h43.375l-103.33-151.28-103.33 151.28h43.375v73.48c-52.887 23.176-89.93 76.02-89.93 137.36 0 82.645 67.238 149.88 149.88 149.88zm-46.551-390.7 46.551-68.152 46.555 68.152h-16.574v93.945c-9.6914-1.9766-19.715-3.0156-29.98-3.0156-10.262 0-20.285 1.0391-29.977 3.0156v-93.945zm46.551 120.91c66.117 0 119.91 53.793 119.91 119.91 0 66.117-53.793 119.91-119.91 119.91-66.117 0-119.91-53.789-119.91-119.91 0-66.117 53.789-119.91 119.91-119.91z" data-original="#000000" xmlns="http://www.w3.org/2000/svg"/></g></svg>
