<?xml version="1.0" encoding="UTF-8"?>
<svg class="" width="24" height="24" enable-background="new 0 0 512 512" version="1.1" viewBox="0 0 511.24 511.24" xml:space="preserve" xmlns="http://www.w3.org/2000/svg"><g fill="#000" xmlns="http://www.w3.org/2000/svg"><path class="" d="m348.44 208.93h-67.326c-4.143 0-7.5 3.358-7.5 7.5s3.357 7.5 7.5 7.5h67.326c4.143 0 7.5-3.358 7.5-7.5s-3.357-7.5-7.5-7.5z" data-original="#000000"/><path class="" d="m348.44 248.5h-67.326c-4.143 0-7.5 3.358-7.5 7.5s3.357 7.5 7.5 7.5h67.326c4.143 0 7.5-3.358 7.5-7.5s-3.357-7.5-7.5-7.5z" data-original="#000000"/><path class="" d="m348.44 288.07h-67.326c-4.143 0-7.5 3.358-7.5 7.5s3.357 7.5 7.5 7.5h67.326c4.143 0 7.5-3.358 7.5-7.5s-3.357-7.5-7.5-7.5z" data-original="#000000"/><path class="" d="m162.8 342.63h185.65c4.143 0 7.5-3.358 7.5-7.5s-3.357-7.5-7.5-7.5h-185.65c-4.142 0-7.5 3.358-7.5 7.5s3.358 7.5 7.5 7.5z" data-original="#000000"/><path class="" d="m162.8 382.2h185.65c4.143 0 7.5-3.358 7.5-7.5s-3.357-7.5-7.5-7.5h-185.65c-4.142 0-7.5 3.358-7.5 7.5s3.358 7.5 7.5 7.5z" data-original="#000000"/><path class="" d="m355.94 142.3c0-6.893-5.607-12.5-12.5-12.5h-175.65c-6.893 0-12.5 5.607-12.5 12.5v29.566c0 6.893 5.607 12.5 12.5 12.5h175.65c6.893 0 12.5-5.607 12.5-12.5zm-15 27.066h-170.65v-24.566h170.65z" data-original="#000000"/><path class="" d="m112.89 464c0 22.893 16.278 42.701 38.707 47.1.475.093.959.14 1.443.14h205.16c.484 0 .968-.047 1.443-.14 22.429-4.399 38.707-24.207 38.707-47.1v-267.307c0-4.142-3.357-7.5-7.5-7.5s-7.5 3.358-7.5 7.5v232.047h-32.024c-4.143 0-7.5 3.358-7.5 7.5s3.357 7.5 7.5 7.5h32.024v20.26c0 15.509-10.857 28.957-25.917 32.24h-203.627c-15.059-3.283-25.916-16.731-25.916-32.24v-20.26h190.746c4.143 0 7.5-3.358 7.5-7.5s-3.357-7.5-7.5-7.5h-190.746v-76.511c0-4.142-3.358-7.5-7.5-7.5s-7.5 3.358-7.5 7.5z" data-original="#000000"/><path class="" d="m112.89 319.54c0 4.142 3.358 7.5 7.5 7.5s7.5-3.358 7.5-7.5v-237.04h255.46v81.505c0 4.142 3.357 7.5 7.5 7.5s7.5-3.358 7.5-7.5v-116c0-26.467-21.533-48-48-48h-189.46c-26.467 0-48 21.533-48 48zm15-271.54c0-18.196 14.804-33 33-33h189.46c18.196 0 33 14.804 33 33v19.5h-255.46z" data-original="#000000"/><path class="" d="m248.12 469.99c0 4.142 3.358 7.5 7.5 7.5s7.5-3.358 7.5-7.5-3.358-7.5-7.5-7.5-7.5 3.358-7.5 7.5z" data-original="#000000"/><path class="" d="m287.12 33.75h-63c-4.142 0-7.5 3.358-7.5 7.5s3.358 7.5 7.5 7.5h63c4.143 0 7.5-3.358 7.5-7.5s-3.358-7.5-7.5-7.5z" data-original="#000000"/><path class="" d="m162.22 256c0 25.952 21.113 47.066 47.065 47.066s47.066-21.114 47.066-47.066-21.114-47.066-47.066-47.066-47.065 21.114-47.065 47.066zm39.565-31.171v23.671h-23.671c2.808-11.666 12.005-20.864 23.671-23.671zm-23.671 38.671h23.671v23.671c-11.666-2.807-20.863-12.005-23.671-23.671zm38.671 23.671v-23.671h23.671c-2.807 11.666-12.005 20.864-23.671 23.671zm23.672-38.671h-23.671v-23.671c11.665 2.807 20.863 12.005 23.671 23.671z" data-original="#000000"/></g></svg>
