<?xml version="1.0" encoding="UTF-8"?>
<svg class="" width="24" height="24" enable-background="new 0 0 512 512" version="1.1" viewBox="0 0 512 512" xml:space="preserve" xmlns="http://www.w3.org/2000/svg"><g fill="#000" xmlns="http://www.w3.org/2000/svg"><path class="" d="m286 391h-15v-15c0-8.284-6.716-15-15-15s-15 6.716-15 15v15h-15c-8.284 0-15 6.716-15 15s6.716 15 15 15h15v15c0 8.284 6.716 15 15 15s15-6.716 15-15v-15h15c8.284 0 15-6.716 15-15s-6.716-15-15-15z" data-original="#000000"/><path class="" d="m458.394 210.001c7.87-9.516 12.606-21.716 12.606-35.001 0-30.327-24.673-55-55-55-.843 0-1.68.026-2.515.064-9.144-12.884-21.251-23.149-35.094-30.06 7.872-9.517 12.609-21.717 12.609-35.004 0-30.327-24.673-55-55-55s-55 24.673-55 55c0 13.287 4.737 25.487 12.609 35.004-13.843 6.911-25.951 17.176-35.094 30.06-.835-.038-1.672-.064-2.515-.064s-1.68.026-2.515.064c-9.144-12.884-21.251-23.149-35.094-30.06 7.872-9.517 12.609-21.717 12.609-35.004 0-30.327-24.673-55-55-55s-55 24.673-55 55c0 13.287 4.737 25.487 12.609 35.004-13.843 6.911-25.951 17.176-35.094 30.06-.835-.038-1.672-.064-2.515-.064-30.327 0-55 24.673-55 55 0 13.285 4.736 25.485 12.606 35.001-31.16 15.605-52.606 47.842-52.606 84.999v20c0 8.284 6.716 15 15 15h166.19c-19.84 19.274-32.19 46.22-32.19 76 0 58.449 47.551 106 106 106s106-47.551 106-106c0-29.78-12.349-56.726-32.19-76h166.19c8.284 0 15-6.716 15-15v-20c0-37.157-21.446-69.394-52.606-84.999zm-42.394-60.001c13.785 0 25 11.215 25 25s-11.215 25-25 25-25-11.215-25-25 11.215-25 25-25zm-80-120c13.785 0 25 11.215 25 25s-11.215 25-25 25-25-11.215-25-25 11.215-25 25-25zm-80 120c13.785 0 25 11.215 25 25s-11.215 25-25 25-25-11.215-25-25 11.215-25 25-25zm65 145v5h-130v-5c0-35.841 29.159-65 65-65s65 29.159 65 65zm-145-265c13.785 0 25 11.215 25 25s-11.215 25-25 25-25-11.215-25-25 11.215-25 25-25zm-80 120c13.785 0 25 11.215 25 25s-11.215 25-25 25-25-11.215-25-25 11.215-25 25-25zm65 150h-130v-5c0-35.841 29.159-65 65-65s65 29.159 65 65zm15-56.187c-9.234-14.381-22.24-26.117-37.606-33.812 7.87-9.516 12.606-21.716 12.606-35.001 0-18.179-8.871-34.319-22.505-44.338 12.149-13.003 29.283-20.662 47.505-20.662s35.356 7.659 47.505 20.662c-13.634 10.019-22.505 26.159-22.505 44.338 0 13.285 4.736 25.485 12.606 35.001-15.366 7.696-28.372 19.431-37.606 33.812zm156 162.187c0 41.907-34.093 76-76 76s-76-34.093-76-76 34.093-76 76-76 76 34.093 76 76zm4-162.187c-9.234-14.381-22.24-26.117-37.606-33.812 7.87-9.516 12.606-21.716 12.606-35.001 0-18.179-8.871-34.319-22.505-44.338 12.149-13.003 29.283-20.662 47.505-20.662s35.356 7.659 47.505 20.662c-13.634 10.019-22.505 26.159-22.505 44.338 0 13.285 4.736 25.485 12.606 35.001-15.366 7.696-28.372 19.431-37.606 33.812zm145 56.187h-130v-5c0-35.841 29.159-65 65-65s65 29.159 65 65z" data-original="#000000"/></g></svg>
