<?xml version="1.0" encoding="UTF-8"?>
<svg class="" width="24" height="24" enable-background="new 0 0 512 512" version="1.1" viewBox="0 0 511.88 511.88" xml:space="preserve" xmlns="http://www.w3.org/2000/svg"><g fill="#000" xmlns="http://www.w3.org/2000/svg"><path class="" d="m377.87 130.21c4.142 0 7.5-3.358 7.5-7.5v-55.348c-0.344-9.931-14.659-9.923-15 0v55.348c0 4.142 3.358 7.5 7.5 7.5z" data-original="#000000"/><path class="" d="m377.87 143.95c-9.652 0-9.668 15 0 15 9.651 0 9.667-15 0-15z" data-original="#000000"/><path class="" d="m199.05 168.1c4.142 0 7.5-3.358 7.5-7.5v-11.009c-0.344-9.931-14.659-9.923-15 0v11.009c0 4.142 3.358 7.5 7.5 7.5z" data-original="#000000"/><path class="" d="m133.44 180.19c1.974 3.419 6.829 4.718 10.245 2.745 3.587-2.071 4.816-6.658 2.745-10.245l-5.504-9.534c-2.071-3.588-6.658-4.817-10.245-2.745-3.587 2.071-4.816 6.658-2.745 10.245z" data-original="#000000"/><path class="" d="m100.408 213.223-9.534-5.505c-3.588-2.072-8.175-.843-10.245 2.745-2.071 3.587-.842 8.174 2.745 10.245l9.534 5.505c3.416 1.973 8.271.674 10.245-2.745 2.072-3.586.843-8.173-2.745-10.245z" data-original="#000000"/><path class="" d="m92.908 331.46-9.534 5.504c-3.587 2.071-4.816 6.658-2.745 10.245 1.974 3.419 6.829 4.718 10.245 2.745l9.534-5.504c3.587-2.071 4.816-6.658 2.745-10.245-2.07-3.587-6.658-4.817-10.245-2.745z" data-original="#000000"/><path class="" d="m143.686 374.738c-3.587-2.072-8.174-.843-10.245 2.745l-5.504 9.534c-2.071 3.587-.842 8.174 2.745 10.245 3.416 1.973 8.271.674 10.245-2.745l5.504-9.534c2.071-3.587.842-8.174-2.745-10.245z" data-original="#000000"/><path class="" d="m309.79 278.84c0 4.142 3.358 7.5 7.5 7.5h11.009c9.925-0.342 9.928-14.658 0-15h-11.009c-4.142 0-7.5 3.358-7.5 7.5z" data-original="#000000"/><path class="" d="m305.2 226.21 9.534-5.505c3.587-2.071 4.816-6.658 2.745-10.245s-6.66-4.815-10.245-2.745l-9.534 5.505c-3.587 2.071-4.816 6.658-2.745 10.245 1.389 2.406 5.925 4.712 10.245 2.745z" data-original="#000000"/><path class="" d="m254.423 182.936c3.417 1.973 8.271.674 10.245-2.745l5.504-9.534c2.071-3.587.842-8.174-2.745-10.245-3.587-2.072-8.174-.842-10.245 2.745l-5.504 9.534c-2.072 3.587-.842 8.174 2.745 10.245z" data-original="#000000"/><path class="" d="m198.949 303.555c21.022.072 32.159-25.304 18.141-40.674l30.523-52.12c2.093-3.574.893-8.168-2.682-10.262s-8.169-.893-10.262 2.682l-30.541 52.151c-14.913-3.423-29.758 8.501-29.57 23.832 0 13.449 10.942 24.391 24.391 24.391zm0-33.782c5.178 0 9.391 4.212 9.391 9.391-.506 12.455-18.277 12.451-18.781 0-.001-5.179 4.212-9.391 9.39-9.391z" data-original="#000000"/><path class="" d="m482.45 329.12h-90.661c12.03-44.618 6.807-95.802-13.082-136.23h85.422c16.519 0 27.434-18.468 19.028-32.995l-86.263-149.07c-8.325-14.387-29.73-14.386-38.056 0l-56.556 97.736c-22.175-13.493-47.182-22.77-73.899-26.73v-16.641h4.423c11.766 0 21.337-9.572 21.337-21.337 0-11.766-9.572-21.337-21.337-21.337h-67.509c-11.765 0-21.337 9.572-21.337 21.337s9.572 21.337 21.337 21.337h4.423v16.633c-18.343 2.708-36.15 7.964-53.196 15.755-8.819 4.031-2.585 17.674 6.235 13.643 141.95-64.846 296.18 67.832 253.48 217.9h-15.623c34.712-106.2-49.53-221.28-161.57-219.45-93.28-4e-3 -169.17 75.888-169.17 169.17-1.484 82.998 65.454 158.84 147.78 167.82v15.109c-165.88-20.787-221.79-231.4-87.461-331.41 7.812-5.744-1.074-17.83-8.886-12.085-24.68 18.146-45.156 42.072-59.214 69.193-38.62 72.841-25.682 167.62 31.482 227.28 32.853 35.143 76.691 57.022 124.08 62.106v5.566c0 16.226 13.201 29.427 29.427 29.427h275.37c16.226 0 29.427-13.201 29.427-29.427v-123.88c0-16.227-13.202-29.427-29.428-29.427zm-323.49-285.27c0-3.495 2.843-6.337 6.337-6.337h67.509c8.39 0.298 8.384 12.379 0 12.674h-67.509c-3.495 0-6.337-2.843-6.337-6.337zm25.759 36.333v-14.996h28.663v14.997c-9.544-0.682-19.118-0.676-28.663-1e-3zm130.09 36.669 57.008-98.517c2.67-4.614 9.42-4.615 12.09 0l86.263 149.07c2.675 4.623-0.704 10.482-6.045 10.482h-93.446c-14.187-24.028-33.267-44.838-55.87-61.037zm-122.16 281.28c28.19-3.418 50.595-25.822 54.012-54.012h103.61c0.026-1e-3 0.052 1e-3 0.078 0h92.504c3.418 28.19 25.822 50.594 54.012 54.012v44.709c-28.19 3.418-50.595 25.822-54.013 54.012h-196.19c-3.418-28.19-25.822-50.595-54.013-54.012zm0-15.136v-24.449c0-7.955 6.472-14.427 14.427-14.427h24.449c-3.208 19.909-18.966 35.667-38.876 38.876zm304.22-24.45v24.449c-19.909-3.209-35.668-18.967-38.877-38.876h24.449c7.955 1e-3 14.428 6.472 14.428 14.427zm-411.14 24.837c-90.773-97.602-20.08-259.09 113.32-258.72 104.22-1.383 181 106.5 145.78 204.45h-137.75c-16.226 0-29.427 13.201-29.427 29.427v72.989c-35.2-4.887-67.591-21.79-91.924-48.152zm106.92 99.043v-24.45c19.909 3.209 35.668 18.967 38.877 38.877h-24.449c-7.955 0-14.428-6.472-14.428-14.427zm289.79 14.427h-24.449c3.209-19.909 18.967-35.668 38.877-38.877v24.45c0 7.955-6.473 14.427-14.428 14.427z" data-original="#000000"/><path class="" d="m344.77 481.04c8.829 0 17.357-1.882 25.35-5.592 3.757-1.745 5.389-6.204 3.645-9.961s-6.205-5.387-9.961-3.645c-29.495 14.116-64.822-8.616-64.436-41.363 0-25.122 20.367-45.561 45.403-45.561 32.25-0.374 54.837 34.275 41.646 63.715-1.648 3.8 0.097 8.217 3.896 9.865 3.801 1.647 8.217-0.096 9.865-3.896 17.538-39.152-12.51-85.181-55.408-84.684-80.128 3.322-80.113 117.81 0 121.12z" data-original="#000000"/><path class="" d="m344.467 458.727c4.813 0 7.272-4.336 7.5-8.426 6.631-2.6 11.658-8.514 12.907-15.913 1.596-9.453-3.496-17.993-12.668-21.249-1.784-.633-12.61-3.426-11.186-7.285 1.061-2.868 6.204-2.261 8.128-.964 0 0 6.266 5.024 10.606.209 5.41-6-.414-11.214-.414-11.214-1.493-1.383-4.061-3.033-7.374-4.093-1.465-10.364-14.073-9.893-15 .435-5.584 2.232-9.69 7.271-10.862 13.48-1.185 6.271.904 12.391 5.453 15.973 4.155 3.273 9.968 5.584 15.63 7.595.857.305 3.467 1.231 2.896 4.617-.302 1.789-1.835 4.823-5.667 4.849-4.358.028-5.291-.116-8.42-2.171-3.462-2.275-8.112-1.312-10.386 2.151-2.274 3.462-1.311 8.112 2.151 10.386 3.46 2.273 6.242 3.467 9.206 4.071.579 3.842 3.036 7.549 7.5 7.549z" data-original="#000000"/><path class="" d="m88.318 278.837c0-4.142-3.358-7.5-7.5-7.5h-11.009c-9.931.344-9.923 14.659 0 15h11.009c4.142 0 7.5-3.358 7.5-7.5z" data-original="#000000"/></g></svg>
