<?xml version="1.0" encoding="UTF-8"?>
<svg class="" width="24" height="24" enable-background="new 0 0 512 512" version="1.1" viewBox="0 0 16 16" xml:space="preserve" xmlns="http://www.w3.org/2000/svg"><g fill="#000" data-name="21" xmlns="http://www.w3.org/2000/svg"><path class="" d="m8 16a8 8 0 1 1 8-8 8.7 8.7 0 0 1 -.19 1.76.5.5 0 0 1 -1-.22 7.2 7.2 0 0 0 .19-1.54 7 7 0 1 0 -3.76 6.21.5.5 0 1 1 .46.88 7.91 7.91 0 0 1 -3.7.91z" data-original="#000000"/><path class="" d="m13.5 14a.5.5 0 0 1 -.5-.5v-4a.5.5 0 0 1 1 0v4a.5.5 0 0 1 -.5.5z" data-original="#000000"/><circle class="" cx="13.5" cy="15.5" r=".5" data-original="#000000"/><path class="" d="m5.08 10.78a.51.51 0 0 1 .14-.7l2.78-1.85v-4.73a.5.5 0 0 1 1 0v5a.51.51 0 0 1 -.22.42l-3 2a.55.55 0 0 1 -.7-.14z" data-original="#000000"/></g></svg>
