<?xml version="1.0" encoding="UTF-8"?>
<svg class="" width="50" height="40" enable-background="new 0 0 512 512" version="1.1" viewBox="0 0 511 512" xml:space="preserve" xmlns="http://www.w3.org/2000/svg"><g fill="#000"><path class="" d="m448.5 204.8h-38.402v-64c0-7.0703-5.7305-12.801-12.801-12.801h-51.199c-7.0664 0-12.797 5.7305-12.797 12.801 0 7.0664 5.7305 12.797 12.797 12.797h38.402v51.199h-332.8c-14.141 0-25.602-11.461-25.602-25.598 0-14.141 11.461-25.602 25.602-25.602h64c7.0703 0 12.801-5.7305 12.801-12.801 0-7.0664-5.7305-12.797-12.801-12.797h-64c-28.266 0.027344-51.172 22.934-51.199 51.199v281.6c0.03125 28.266 22.934 51.168 51.199 51.199h396.8c7.0664 0 12.797-5.7305 12.797-12.797v-281.6c0-7.0664-5.7305-12.797-12.797-12.797zm-396.8 281.6c-14.133-0.011719-25.586-11.465-25.602-25.598v-237.52c7.7461 4.6094 16.586 7.0664 25.602 7.1172h384v76.801h-89.602c-7.0664 0-12.797 5.7305-12.797 12.801v76.801c0 7.0664 5.7305 12.797 12.797 12.797h89.602v76.801zm384-102.4h-76.801v-51.199h76.801z" data-original="#000000" xmlns="http://www.w3.org/2000/svg"/><path class="" d="m222.9 176.4c4.6797 3.7305 11.32 3.7305 16 0l64-51.199c5.5234-4.418 6.418-12.48 2-18-4.418-5.5234-12.477-6.4219-18-2l-43.199 34.574v-126.98c0-7.0703-5.7305-12.801-12.801-12.801-7.0664 0-12.797 5.7305-12.797 12.801v126.97l-43.199-34.566c-5.5234-4.4219-13.582-3.5234-18 2-4.418 5.5195-3.5234 13.582 2 18z" data-original="#000000" xmlns="http://www.w3.org/2000/svg"/></g></svg>
