<?xml version="1.0" encoding="UTF-8"?>
<svg class="" width="24" height="24" enable-background="new 0 0 512 512" version="1.1" viewBox="0 0 520 520" xml:space="preserve" xmlns="http://www.w3.org/2000/svg"><g xmlns="http://www.w3.org/2000/svg"><g fill="#000"><circle class="" cx="470" cy="120" r="10" data-original="#000000"/><circle class="" cx="400" cy="50" r="10" data-original="#000000"/><circle class="" cx="320" cy="40" r="10" data-original="#000000"/><circle class="" cx="170" cy="50" r="10" data-original="#000000"/><circle class="" cx="70" cy="140" r="10" data-original="#000000"/><circle class="" cx="390" cy="440" r="10" data-original="#000000"/><circle class="" cx="280" cy="120" r="10" data-original="#000000"/><path class="" d="m422.93 87.071 17.5 17.5c3.905 3.905 10.236 3.905 14.143 0 3.905-3.905 3.905-10.237 0-14.143l-10.429-10.428 10.429-10.429c3.905-3.905 3.905-10.237 0-14.143l-10.429-10.428 10.429-10.429c3.905-3.905 3.905-10.237 0-14.143-3.906-3.905-10.236-3.905-14.143 0l-17.5 17.5c-3.905 3.905-3.905 10.237 0 14.143l10.428 10.429-10.429 10.429c-3.905 3.905-3.905 10.237 1e-3 14.142z" data-original="#000000"/><path class="" d="m218.04 49.806 15.011 3.002-6.788 6.787c-5.489 5.491-2.884 14.891 4.646 16.772l26.666 6.667c5.345 1.336 10.784-1.904 12.127-7.276 1.34-5.358-1.918-10.787-7.275-12.126l-9.533-2.383 7.511-7.511c5.634-5.633 2.719-15.312-5.11-16.877l-33.333-6.667c-5.416-1.087-10.684 2.428-11.767 7.845-1.083 5.416 2.43 10.684 7.845 11.767z" data-original="#000000"/><path class="" d="m299.831 100.768 18.564 13.488-7.091 21.823c-1.339 4.121.128 8.634 3.633 11.181 3.506 2.546 8.252 2.546 11.756 0l18.563-13.487 18.564 13.488c1.753 1.273 3.815 1.91 5.878 1.91 6.748 0 11.621-6.596 9.511-13.09l-7.091-21.823 18.564-13.488c3.505-2.546 4.972-7.06 3.633-11.181-1.339-4.12-5.179-6.91-9.511-6.91h-22.946l-7.092-21.824c-1.339-4.12-5.179-6.91-9.511-6.91s-8.172 2.79-9.511 6.91l-7.091 21.824h-22.946c-4.332 0-8.172 2.79-9.511 6.91-1.337 4.119.13 8.633 3.635 11.179zm45.426-4.508c1.413 3.686 4.871 6.199 8.813 6.404-3.069 2.483-4.39 6.548-3.366 10.361-3.311-2.151-7.583-2.152-10.894-.001 1.023-3.813-.298-7.877-3.366-10.36 3.943-.205 7.401-2.718 8.813-6.404z" data-original="#000000"/><path class="" d="m490 190.1h-13.47l8.444-6.135c3.505-2.546 4.972-7.06 3.633-11.181-1.339-4.12-5.179-6.91-9.511-6.91h-34.406l-10.632-32.722c-1.339-4.12-5.179-6.91-9.511-6.91s-8.172 2.79-9.511 6.91l-10.632 32.722h-34.404c-4.332 0-8.172 2.79-9.511 6.91s0.128 8.634 3.633 11.181l8.443 6.135c-14.731-0.212-89.224-0.03-103.95 0l15.425-26.009c2.816-4.75 1.25-10.885-3.501-13.702l-51.607-30.605c-4.746-2.815-10.885-1.25-13.702 3.5l-61.818 104.24c1.546-10.071 1.668-18.078-0.35-24.197-6.867-20.819-25.744-34.807-46.973-34.807-32.922 0-55.506 32.995-44.913 65.114 3.24 9.823 14.394 20.834 30.354 34.396-8.962-1.85-21.344-4.082-29.722-1.321-21.737 7.171-34.463 30.199-27.295 51.926 6.608 20.036 27.908 31.557 49.1 26.589l-62.217 104.91c-2.815 4.747-1.25 10.884 3.5 13.702l51.607 30.605c4.772 2.827 10.896 1.231 13.702-3.501l69.792-117.68v106.75c0 5.522 4.477 10 10 10h320c5.522 0 10-4.478 10-10v-279.9c0-5.523-4.478-10-10-10zm-89.224-4.225h10.895c4.332 0 8.172-2.79 9.511-6.91l3.366-10.361 3.366 10.361c1.339 4.12 5.179 6.91 9.511 6.91h10.895l-5.815 4.225h-35.912zm-320.6 41.493c-6.311-19.136 6.591-38.85 25.919-38.85 12.579 0 23.823 8.468 27.979 21.072 2.972 9.013-6.688 43.171-10.618 58.934-11.387-9.459-40.324-32.195-43.28-41.156zm-26.663 84.999c-3.509-10.635 2.708-22.757 14.566-26.667 0.091-0.03 0.958-0.295 3.171-0.295 9.881 0 29.423 5.237 39.884 7.85-5.264 6.444-23.636 29.813-30.034 31.923-11.684 3.854-24.008-1.957-27.587-12.811zm24.598 159.77-34.405-20.404 183.63-309.64 34.405 20.404zm101.89-22.134h70c5.523 0 10-4.478 10-10s-4.477-10-10-10h-70v-90.471l76.757-129.43h33.243v259.9h-110zm130 20v-259.9h40v259.9zm60 0v-259.9h110v219.9h-60c-5.522 0-10 4.478-10 10s4.478 10 10 10h60v20z" data-original="#000000"/><path class="" d="m150 150c16.542 0 30-13.458 30-30s-13.458-30-30-30-30 13.458-30 30 13.458 30 30 30zm0-40c5.514 0 10 4.486 10 10s-4.486 10-10 10-10-4.486-10-10 4.486-10 10-10z" data-original="#000000"/><path class="" d="m75 100c19.299 0 35-15.701 35-35s-15.701-35-35-35-35 15.701-35 35 15.701 35 35 35zm0-50c8.271 0 15 6.729 15 15s-6.729 15-15 15-15-6.729-15-15 6.729-15 15-15z" data-original="#000000"/></g></g></svg>
