<?xml version="1.0" encoding="UTF-8"?>
<svg class="" width="24" height="24" enable-background="new 0 0 512 512" version="1.1" viewBox="0 0 469.33 469.33" xml:space="preserve" xmlns="http://www.w3.org/2000/svg">
<g xmlns="http://www.w3.org/2000/svg">
	
		<g fill="#000">
			<path class="" d="m234.67 106.67c29.406 0 53.333-23.927 53.333-53.333s-23.927-53.334-53.333-53.334-53.333 23.927-53.333 53.333 23.926 53.334 53.333 53.334zm0-85.334c17.646 0 32 14.354 32 32s-14.354 32-32 32-32-14.354-32-32 14.354-32 32-32z" data-original="#000000"/>
			<path class="" d="m161.52 213.33h146.29c12.604 0 22.854-11.063 22.854-24.667v-6.833c0-17.823-8.823-34.104-23.042-42.49-17.031-10.042-43.51-22.01-72.958-22.01s-55.927 11.969-72.958 22.01c-14.219 8.385-23.042 24.667-23.042 42.49v6.833c0 13.605 10.25 24.667 22.854 24.667zm-1.521-31.5c0-10.156 4.927-19.615 12.542-24.115 14.74-8.688 37.49-19.052 62.125-19.052s47.385 10.365 62.125 19.052c7.615 4.5 12.542 13.958 12.542 24.115v6.833c0 2.219-1.26 3.333-1.521 3.333h-146.29c-0.26 0-1.521-1.115-1.521-3.333v-6.833z" data-original="#000000"/>
			<path class="" d="m96 362.67c29.406 0 53.333-23.927 53.333-53.333s-23.927-53.334-53.333-53.334-53.333 23.927-53.333 53.333 23.927 53.334 53.333 53.334zm0-85.334c17.646 0 32 14.354 32 32s-14.354 32-32 32-32-14.354-32-32 14.354-32 32-32z" data-original="#000000"/>
			<path class="" d="m168.96 395.34c-17.031-10.042-43.51-22.01-72.958-22.01s-55.927 11.969-72.958 22.01c-14.219 8.385-23.042 24.666-23.042 42.489v6.833c0 13.604 10.25 24.667 22.854 24.667h146.29c12.604 0 22.854-11.063 22.854-24.667v-6.833c0-17.823-8.823-34.104-23.042-42.489zm1.709 49.323c0 2.219-1.26 3.333-1.521 3.333h-146.29c-0.26 0-1.521-1.115-1.521-3.333v-6.833c0-10.156 4.927-19.615 12.542-24.115 14.74-8.688 37.49-19.052 62.125-19.052s47.385 10.365 62.125 19.052c7.615 4.5 12.542 13.958 12.542 24.115v6.833z" data-original="#000000"/>
			<path class="" d="m373.33 362.67c29.406 0 53.333-23.927 53.333-53.333s-23.926-53.334-53.333-53.334-53.333 23.927-53.333 53.333 23.927 53.334 53.333 53.334zm0-85.334c17.646 0 32 14.354 32 32s-14.354 32-32 32-32-14.354-32-32 14.355-32 32-32z" data-original="#000000"/>
			<path class="" d="m446.29 395.34c-17.031-10.042-43.51-22.01-72.958-22.01s-55.927 11.969-72.958 22.01c-14.219 8.385-23.042 24.667-23.042 42.49v6.833c0 13.604 10.25 24.667 22.854 24.667h146.29c12.604 0 22.854-11.063 22.854-24.667v-6.833c-1e-3 -17.824-8.824-34.105-23.042-42.49zm1.708 49.323c0 2.219-1.26 3.333-1.521 3.333h-146.29c-0.26 0-1.521-1.115-1.521-3.333v-6.833c0-10.156 4.927-19.615 12.542-24.115 14.74-8.688 37.49-19.052 62.125-19.052s47.385 10.365 62.125 19.052c7.615 4.5 12.542 13.958 12.542 24.115v6.833z" data-original="#000000"/>
			<path class="" d="m287.99 362.67c3.135 0 6.229-1.375 8.344-4 3.677-4.604 2.927-11.313-1.667-15l-49.333-39.466v-58.867c0-5.896-4.771-10.667-10.667-10.667s-10.667 4.77-10.667 10.666v58.875l-49.333 39.458c-4.594 3.688-5.344 10.396-1.667 15 2.115 2.625 5.208 4 8.344 4 2.333 0 4.688-0.76 6.656-2.333l46.667-37.333 46.666 37.333c1.969 1.573 4.323 2.334 6.657 2.334z" data-original="#000000"/>
		</g>
	
</g>















</svg>
