<?xml version="1.0" encoding="UTF-8"?>
<svg class="" width="24" height="24" enable-background="new 0 0 512 512" version="1.1" viewBox="0 0 128 128" xml:space="preserve" xmlns="http://www.w3.org/2000/svg"><g fill="#000"><path class="" d="m126 124h-14v-39h14a2 2 0 0 0 0-4h-16a1.92 1.92 0 0 0-0.59 0.1 31.61 31.61 0 0 0-13.16-5.1c-8-1-14.88 1.34-20.43 3.22a43.51 43.51 0 0 1-6.15 1.78 70.5 70.5 0 0 1-15.78 1h-3.89c-4.5 0-7 1.51-8.4 3.43l-23.6-14.14c-2.57-1.56-10.48-6.29-15.6 0.51a9.39 9.39 0 0 0-2 7 10.38 10.38 0 0 0 4.4 6.8c7.07 5.3 31 23 41.31 28.19s14.68 6.21 25.89 6.21h36v6a2 2 0 0 0 2 2h16a2 2 0 0 0 0-4zm-54-8c-10.65 0-14.26-0.87-24.11-5.79-10-5-33.69-22.56-40.69-27.81a6.47 6.47 0 0 1-2.87-4.16 5.64 5.64 0 0 1 1.27-4 4.31 4.31 0 0 1 3.65-2c1.56 0 3.68 0.68 6.72 2.5l24.16 14.5a11.43 11.43 0 0 0-0.13 1.76c0 7.37 9.3 10 18 10 7.85 0 24.71 1 24.88 1a2 2 0 1 0 0.24-4c-0.7 0-17.12-1-25.12-1-7 0-14-1.86-14-6 0-2.47 0.71-5 6-5 1.33 0 2.56 0 3.78 0.07a75.16 75.16 0 0 0 16.55-1.07 45 45 0 0 0 6.77-2c5.16-1.75 11.59-3.93 18.65-3a28.28 28.28 0 0 1 12.25 5v31z" data-original="#000000" xmlns="http://www.w3.org/2000/svg"/><path class="" d="m62 64.4a2 2 0 0 0 3 0l35.07-41a2 2 0 0 0 0.3-2.13 2 2 0 0 0-1.82-1.17h-15.55v-18.1a2 2 0 0 0-2-2h-35a2 2 0 0 0-2 2v18.08h-15.57a2 2 0 0 0-1.82 1.17 2 2 0 0 0 0.3 2.13zm-16-40.32a2 2 0 0 0 2-2v-18.08h31v18.08a2 2 0 0 0 2 2h13.23l-30.73 35.92-30.73-35.92z" data-original="#000000" xmlns="http://www.w3.org/2000/svg"/></g></svg>
