<?xml version="1.0" encoding="UTF-8"?>
<svg class="" width="24" height="24" enable-background="new 0 0 512 512" version="1.1" viewBox="0 0 128 128" xml:space="preserve" xmlns="http://www.w3.org/2000/svg"><path d="m64 128c-35.289 0-64-28.711-64-64s28.711-64 64-64 64 28.711 64 64-28.711 64-64 64zm0-120c-30.879 0-56 25.121-56 56s25.121 56 56 56 56-25.121 56-56-25.121-56-56-56zm32 56c0-2.211-1.789-4-4-4h-56c-2.211 0-4 1.789-4 4s1.789 4 4 4h56c2.211 0 4-1.789 4-4z" fill="#000" data-original="#000000" xmlns="http://www.w3.org/2000/svg"/></svg>
