<?xml version="1.0" encoding="UTF-8"?>
<svg class="" width="24" height="24" enable-background="new 0 0 512 512" version="1.1" viewBox="0 0 384 384" xml:space="preserve" xmlns="http://www.w3.org/2000/svg">
<g xmlns="http://www.w3.org/2000/svg">
	
		<path class="" d="m331.91 17.336c-8.832 0-16 7.168-16 16v13.336c-34.368-29.968-78.2-46.672-124.91-46.672-105.32 0-191 85.992-191 191.68 0 8.832 7.168 16 16 16s16-7.168 16-16c0-88.048 71.328-159.68 159-159.68 38.456 0 74.584 13.616 103.06 38.072h-14.664c-8.832 0-16 7.168-16 16s7.168 16 16 16h52.512c8.832 0 16-7.168 16-16v-52.736c0-8.832-7.168-16-16-16z" fill="#000" data-original="#000000"/>
	
</g>
<g xmlns="http://www.w3.org/2000/svg">
	
		<path class="" d="m368 176.32c-8.832 0-16 7.168-16 16 0 88.048-71.328 159.68-159 159.68-38.008 0-73.752-13.28-102.07-37.2h15.368c8.832 0 16-7.168 16-16s-7.168-16-16-16h-52.52c-0.144 0-0.272 0.04-0.408 0.04-0.608 0.016-1.208 0.096-1.816 0.184-0.448 0.064-0.896 0.104-1.336 0.208-0.528 0.12-1.048 0.312-1.568 0.488-0.48 0.168-0.968 0.312-1.432 0.52-0.44 0.2-0.856 0.456-1.28 0.696-0.504 0.288-1 0.568-1.472 0.904-0.12 0.088-0.256 0.136-0.376 0.232-0.272 0.208-0.48 0.464-0.736 0.688-0.424 0.368-0.848 0.736-1.232 1.152-0.36 0.384-0.672 0.784-0.984 1.192s-0.616 0.816-0.896 1.248c-0.28 0.448-0.52 0.912-0.752 1.376-0.232 0.456-0.448 0.92-0.632 1.4-0.184 0.496-0.328 0.992-0.464 1.504-0.128 0.488-0.264 0.976-0.344 1.48-0.096 0.568-0.136 1.136-0.176 1.712-0.024 0.328-0.096 0.648-0.096 0.984v52.736c0 8.832 7.168 16 16 16s16-7.168 16-16v-12.72c34.104 29.032 77.28 45.176 123.22 45.176 105.32 0 191-85.992 191-191.68 0-8.832-7.168-16-16-16z" fill="#000" data-original="#000000"/>
	
</g>















</svg>
