<?xml version="1.0" encoding="UTF-8"?>
<svg class="" width="24" height="24" enable-background="new 0 0 512 512" version="1.1" viewBox="0 0 512 512" xml:space="preserve" xmlns="http://www.w3.org/2000/svg"><g fill="#000" xmlns="http://www.w3.org/2000/svg"><path class="" d="m121.52 138.59h147.16c9.697 0 9.697-15 0-15h-147.16c-9.697 0-9.697 15 0 15z" data-original="#000000"/><path class="" d="m121.52 193.62h113.16c9.697 0 9.697-15 0-15h-113.16c-9.697 0-9.697 15 0 15z" data-original="#000000"/><path class="" d="m121.52 248.64h97.161c9.697 0 9.697-15 0-15h-97.161c-9.697 0-9.697 15 0 15z" data-original="#000000"/><path class="" d="m259.71 432.38h-4.969v-73.299c0-4.142-3.357-7.5-7.5-7.5h-30.098v-26.438c0-4.142-3.357-7.5-7.5-7.5h-37.507c-4.143 0-7.5 3.358-7.5 7.5v45.637h-30.039c-4.143 0-7.5 3.358-7.5 7.5v54.1h-4.969c-4.143 0-7.5 3.358-7.5 7.5s3.357 7.5 7.5 7.5h137.58c4.143 0 7.5-3.358 7.5-7.5s-3.357-7.5-7.499-7.5zm-117.61 0v-46.6h22.508v46.6zm37.539 0v-99.737h22.507v99.737zm37.596 0v-65.799h22.508v65.799z" data-original="#000000"/><path class="" d="m511.94 233.6c-0.977-31.572-13.836-61.282-36.211-83.657-10.736-10.736-22.972-19.077-36.037-25.035-0.219-0.126-0.446-0.243-0.681-0.349-0.24-0.108-0.483-0.202-0.727-0.282-16.897-7.451-35.13-10.947-53.281-10.479v-41.322c0-9.606-7.813-17.421-17.418-17.421h-10.817v-9.364c0-9.606-7.813-17.421-17.418-17.421h-10.847v-10.852c1e-3 -9.606-7.813-17.421-17.417-17.421h-293.66c-9.605 0-17.418 7.815-17.418 17.421v422.1c0 9.606 7.813 17.421 17.418 17.421h10.847v10.852c0 9.606 7.813 17.421 17.387 17.421l10.849 0.044v9.32c0 9.606 7.813 17.421 17.418 17.421h234.28c1.961 0 3.901-0.8 5.291-2.184l69.303-68.975c1.414-1.408 2.209-3.321 2.209-5.316v-74.354c1.011 0.025 2.022 0.049 3.033 0.049 21.14 0 42.19-5.403 60.601-15.719 8.461-4.74 1.128-17.823-7.332-13.086-40.043 22.439-90.158 16.91-124.48-12.955l73.651-73.651 100.69 26.682c-4.438 13.121-11.452 25.572-21.081 36.556-6.392 7.292 4.886 17.18 11.279 9.889 20.69-23.601 31.549-53.906 30.578-85.334zm-86.049-98.158-43.947 97.678-75.742 75.743c-37.205-42.673-35.504-107.69 5.117-148.31 30.924-30.924 75.99-39.289 114.57-25.107zm-380.21 334.77c-1.333 0-2.417-1.086-2.417-2.421v-422.1c0-1.335 1.084-2.421 2.417-2.421h52.318c9.697 0 9.697-15 0-15h-52.318c-9.604 0-17.417 7.815-17.417 17.421v396.25h-10.846c-1.333 0-2.418-1.086-2.418-2.421v-422.1c0-1.335 1.085-2.421 2.418-2.421h293.66c1.333 0 2.418 1.086 2.418 2.421v10.853h-173.5c-9.697 0-9.697 15 0 15h199.35c1.333 0 2.418 1.086 2.418 2.421v9.364h-267.85c-9.604 0-17.418 7.815-17.418 17.421v397.78zm25.819 24.364v-422.1c0-1.335 1.085-2.421 2.418-2.421h293.66c1.333 0 2.418 1.086 2.418 2.421v42.619c-25.375 3.746-49.802 15.359-69.292 34.849-48.252 48.252-48.252 126.76 0 175.02 18.979 18.978 42.904 31.004 69.292 34.906v67.512h-51.885c-9.604 0-17.418 7.815-17.418 17.421v52.197h-226.78c-1.333 0-2.418-1.086-2.418-2.421zm244.2-8.244v-41.532c0-1.335 1.085-2.421 2.418-2.421h41.336zm82.986-253.87 40.89-90.884c9.184 4.913 17.808 11.232 25.544 18.968 26.287 26.288 36.379 63.104 29.852 97.432z" data-original="#000000"/></g></svg>
