<?xml version="1.0" encoding="UTF-8"?>
<svg class="" width="24" height="24" enable-background="new 0 0 512 512" version="1.1" viewBox="0 0 60 61" xml:space="preserve" xmlns="http://www.w3.org/2000/svg"><g fill="none" fill-rule="evenodd" xmlns="http://www.w3.org/2000/svg"><g fill="#000" fill-rule="nonzero"><path id="Shape" class="" d="m4 55h2v1.988c-0.015812 1.0554 0.39485 2.0725 1.139 2.821 0.75424 0.76626 1.7858 1.1957 2.861 1.191h33c2.2091 0 4-1.7909 4-4v-12c0-0.55228-0.44772-1-1-1s-1 0.44772-1 1v12c0 1.1046-0.89543 2-2 2h-33c-0.54073 0.0026202-1.0595-0.21383-1.438-0.6-0.36893-0.37148-0.57167-0.87654-0.562-1.4v-2h29c2.2091 0 4-1.7909 4-4v-3.74c0-0.55228-0.44772-1-1-1s-1 0.44772-1 1v3.74c0 1.1046-0.89543 2-2 2h-33c-1.1046 0-2-0.89543-2-2v-46c0-1.1046 0.89543-2 2-2h33c1.1046 0 2 0.89543 2 2v8c0 0.55228 0.44772 1 1 1s1-0.44772 1-1v-8c0-2.2091-1.7909-4-4-4h-33c-2.2091 0-4 1.7909-4 4v46c0 2.2091 1.7909 4 4 4z" data-original="#000000"/><path id="Shape" class="" d="m5 7c-0.55228 0-1 0.44772-1 1v9c0 0.55228 0.44772 1 1 1h4c0.55228 0 1-0.44772 1-1s-0.44772-1-1-1h-3v-8c0-0.55228-0.44772-1-1-1z" data-original="#000000"/><path id="Shape" class="" d="m19 12.5c0-3.084-1.757-5.5-4-5.5s-4 2.416-4 5.5 1.757 5.5 4 5.5 4-2.416 4-5.5zm-6 0c0-2.062 1.054-3.5 2-3.5s2 1.438 2 3.5-1.054 3.5-2 3.5-2-1.437-2-3.5z" data-original="#000000"/><path id="Shape" class="" d="m24.949 7.684c-0.13488-0.41037-0.51803-0.68775-0.95-0.68775s-0.81512 0.27738-0.95 0.68775l-3 9c-0.17452 0.52467 0.10933 1.0915 0.634 1.266s1.0915-0.10933 1.266-0.634l0.439-1.316h3.224l0.439 1.316c0.1129 0.3394 0.39828 0.59279 0.74866 0.66472s0.71252-0.048528 0.95-0.316c0.23748-0.26747 0.31423-0.64132 0.20134-0.98072zm-1.895 6.316 0.946-2.838 0.946 2.838z" data-original="#000000"/><path id="Shape" class="" d="m32 17v-5.141l3.126 5.627c0.17644 0.31728 0.51096 0.51402 0.874 0.514 0.084692 1.354e-4 0.16905-0.010619 0.251-0.032 0.44103-0.11436 0.74901-0.51238 0.749-0.968v-9c0-0.55228-0.44772-1-1-1s-1 0.44772-1 1v5.141l-3.126-5.627c-0.2214-0.39822-0.684-0.59643-1.125-0.48205s-0.749 0.51242-0.74897 0.96805v9c0 0.55228 0.44772 1 1 1s1-0.44772 1-1z" data-original="#000000"/><path id="Shape" class="" d="m5 25h13c0.55228 0 1-0.44772 1-1s-0.44772-1-1-1h-13c-0.55228 0-1 0.44772-1 1s0.44772 1 1 1z" data-original="#000000"/><path id="Shape" class="" d="m5 30h13c0.55228 0 1-0.44772 1-1s-0.44772-1-1-1h-13c-0.55228 0-1 0.44772-1 1s0.44772 1 1 1z" data-original="#000000"/><path id="Shape" class="" d="m5 35h13c0.55228 0 1-0.44772 1-1s-0.44772-1-1-1h-13c-0.55228 0-1 0.44772-1 1s0.44772 1 1 1z" data-original="#000000"/><path id="Shape" class="" d="m22 24c0 0.55228 0.44772 1 1 1h9.34c0.55228 0 1-0.44772 1-1s-0.44772-1-1-1h-9.34c-0.55228 0-1 0.44772-1 1z" data-original="#000000"/><path id="Shape" class="" d="m23 30h3.88c0.55228 0 1-0.44772 1-1s-0.44772-1-1-1h-3.88c-0.55228 0-1 0.44772-1 1s0.44772 1 1 1z" data-original="#000000"/><path id="Shape" class="" d="m23 35h4.07c0.55228 0 1-0.44772 1-1s-0.44772-1-1-1h-4.07c-0.55228 0-1 0.44772-1 1s0.44772 1 1 1z" data-original="#000000"/><path id="Shape" class="" d="m5 40h13c0.55228 0 1-0.44772 1-1s-0.44772-1-1-1h-13c-0.55228 0-1 0.44772-1 1s0.44772 1 1 1z" data-original="#000000"/><path id="Shape" class="" d="m29.87 39c0-0.55228-0.44772-1-1-1h-5.87c-0.55228 0-1 0.44772-1 1s0.44772 1 1 1h5.87c0.55228 0 1-0.44772 1-1z" data-original="#000000"/><path id="a" class="" d="m6 48h3.133c0.91087 0.0030131 1.7443-0.51199 2.149-1.328 0.068402-0.15529 0.23212-0.24575 0.4-0.221 0.16774 0.0091901 0.30979 0.12689 0.35 0.29l0.177 0.617c0.25073 0.90437 1.0107 1.5762 1.939 1.714 0.12603 0.019885 0.25341 0.029916 0.381 0.03 0.80095 0.0013775 1.5485-0.40138 1.988-1.071l1.151-1.726c0.073848-0.11318 0.19986-0.18143 0.335-0.18143s0.26115 0.068241 0.335 0.18143l0.416 0.626c0.44566 0.66869 1.1964 1.07 2 1.069h3.246c0.55228 0 1-0.44772 1-1s-0.44772-1-1-1h-3.25c-0.13433 1.997e-4 -0.25978-0.067037-0.334-0.179l-0.416-0.621c-0.44466-0.67035-1.1956-1.0734-2-1.0734s-1.5553 0.403-2 1.0734l-1.15 1.722c-0.085808 0.13262-0.24163 0.20232-0.39769 0.1779-0.15606-0.024425-0.28313-0.1384-0.32431-0.2909l-0.176-0.617c-0.2702-0.95412-1.0994-1.6438-2.0867-1.7357-0.98737-0.091915-1.9296 0.43288-2.3713 1.3207-0.067742 0.13729-0.20791 0.22388-0.361 0.223h-3.133c-0.55228 0-1 0.44772-1 1s0.44772 1 1 1z" data-original="#000000"/><path class="" d="m28 48h5.534c0.43052-7.25e-4 0.84472-0.16476 1.159-0.459 2.277-2.1 6.951-5.645 12.672-5.762 0.90926-0.0037415 1.6564-0.71878 1.7-1.627 0.018-0.368 0.479-9.057 3-13.782l7.82-14.68c0.16791-0.31547 0.15478-0.69655-0.034468-0.9997-0.18924-0.30315-0.52584-0.48231-0.883-0.47-0.35716 0.012314-0.68062 0.21423-0.84853 0.5297l-7.349 13.8-3.794-2.02-5.03-2.681 9.254-17.379c0.19171-0.31671 0.19276-0.71343 0.0027179-1.0311s-0.54006-0.50445-0.90978-0.48535c-0.36972 0.019096-0.69864 0.24089-0.85494 0.5765l-9.729 18.256c-2.52 4.728-9.475 9.952-9.77 10.172-0.72753 0.54397-0.90315 1.5617-0.4 2.318 3.201 4.992 2.661 11.253 2.278 13.724h-3.817c-0.55228 0-1 0.44772-1 1s0.44772 1 1 1zm3.347-16.6c1.192-0.913 6.862-5.377 9.623-9.8l5.83 3.1 3.062 1.633c-2.135 4.758-2.682 11.957-2.775 13.457-4.0865 0.26808-8.0015 1.743-11.249 4.238l3.234-6.137c1.9689 0.49026 3.9951-0.56093 4.7281-2.453 0.73297-1.892-0.056199-4.0339-1.8416-4.998-1.7854-0.96415-4.0092-0.44942-5.1893 1.2011s-0.94796 3.9213 0.5418 5.2989l-3.211 6.082c0.24715-4.0606-0.71058-8.1037-2.753-11.622zm7.713 4.365c-0.71379-0.38037-1.1282-1.1532-1.0501-1.9583 0.078139-0.80503 0.63346-1.4838 1.4071-1.7197 0.18907-0.057168 0.38547-0.086476 0.583-0.087 0.83234 5.727e-4 1.5773 0.51658 1.8705 1.2956 0.29315 0.77901 0.073196 1.6581-0.55227 2.2073-0.62546 0.54917-1.5257 0.65356-2.2602 0.2621z" data-original="#000000"/></g></g></svg>
