<?xml version="1.0" encoding="UTF-8"?>
<svg class="" width="50" height="40" enable-background="new 0 0 512 512" version="1.1" viewBox="0 0 64 64" xml:space="preserve" xmlns="http://www.w3.org/2000/svg"><g fill="#000"><path class="" d="M18,25v-.382l.624.312A11.357,11.357,0,0,0,29.378,40h1.244a11.362,11.362,0,0,0,8.256-19.185A2.935,2.935,0,0,0,38.234,18a2.994,2.994,0,0,0,0-4A3,3,0,0,0,36,9a.964.964,0,0,0-.152.012l-1.374.211,1.5-5.98a1,1,0,0,0-1.525-1.075L32.277,3.613,30.831,1.445a1,1,0,0,0-1.7.051L27.6,4.124,25.428,3.1a1,1,0,0,0-1.4,1.146L24.6,6.527,18,9.461V9a1,1,0,0,0-1-1H9A1,1,0,0,0,8,9H1v2H8V23H1v2H8a1,1,0,0,0,1,1h8A1,1,0,0,0,18,25Zm22,3.622A9.389,9.389,0,0,1,30.622,38H29.378a9.365,9.365,0,0,1-8.949-12.167L22.553,26.9A1,1,0,0,0,23,27h4a3,3,0,0,0,3,3,1,1,0,1,1-1,1H27a3,3,0,0,0,2,2.816V36h2V33.816A2.993,2.993,0,0,0,30,28a1,1,0,0,1-1-1h5A3,3,0,0,0,36.789,22.9a2.994,2.994,0,0,0,.909-.426A9.413,9.413,0,0,1,40,28.622ZM27.572,6.324a1,1,0,0,0,1.291-.4l1.192-2.039,1.113,1.669a1,1,0,0,0,1.387.277l.847-.565L32.331,9.553l-4.732.728L26.482,5.808ZM18,11.65,25.093,8.5l.522,2.089-2.767.426.3,1.976L36.063,11A1,1,0,0,1,36,13H33v2h3a1,1,0,0,1,0,2H33v2h3a1,1,0,0,1,0,2H33v2h1a1,1,0,0,1,0,2H23.236L18,22.382ZM16,24H10V10h6Z" data-original="#000000" xmlns="http://www.w3.org/2000/svg"/><path class="" d="M63,48V46H58a1,1,0,0,0-1-1H49a1,1,0,0,0-1,1v1.6A9.313,9.313,0,0,0,41.529,45H40.236a4.587,4.587,0,0,0-3.8,2H30a2.992,2.992,0,0,0-2.528,1.4L22.521,44.22A3.752,3.752,0,0,0,16,46.751v.193a3.749,3.749,0,0,0,.963,2.51l6.287,6.985A7.713,7.713,0,0,0,28.945,59h0L48,59.951V62a1,1,0,0,0,1,1h8a1,1,0,0,0,1-1h5V60H58V48ZM48,57.949,29,57a5.745,5.745,0,0,1-4.264-1.9L18.45,48.116A1.752,1.752,0,0,1,18,46.944v-.193A1.751,1.751,0,0,1,21.069,45.6a1.091,1.091,0,0,0,.109.106l5.911,4.988A3,3,0,0,0,30,53h7V51H30a1,1,0,0,1,0-2h7a1,1,0,0,0,.9-.553A2.6,2.6,0,0,1,40.236,47h1.293a7.323,7.323,0,0,1,5.207,2.149A22.034,22.034,0,0,1,48,51.256ZM56,61H50V47h6Z" data-original="#000000" xmlns="http://www.w3.org/2000/svg"/></g></svg>
