<?xml version="1.0" encoding="UTF-8"?>
<svg class="" width="24" height="24" enable-background="new 0 0 512 512" version="1.1" viewBox="0 0 512 512" xml:space="preserve" xmlns="http://www.w3.org/2000/svg"><g xmlns="http://www.w3.org/2000/svg"><g fill="#000"><path class="" d="m147.58 444.46v20.507c0 8.067 6.563 14.63 14.631 14.63h112.37c4.143 0 7.5-3.357 7.5-7.5s-3.357-7.5-7.5-7.5h-112v-19.768h186.49v19.768h-39.413c-4.143 0-7.5 3.357-7.5 7.5s3.357 7.5 7.5 7.5h39.782c8.067 0 14.631-6.563 14.631-14.63v-20.507c0-8.067-6.563-14.631-14.631-14.631h-187.22c-8.067 0-14.631 6.564-14.631 14.631z" data-original="#000000"/><path class="" d="m443.156 227.813c32.318-28.63 49.638-69.305 49.703-110.27.034-22.252-17.922-40.332-40.104-40.332h-55.146v-18.046h16.506c11.435 0 20.737-9.303 20.737-20.737v-17.69c.001-11.435-9.302-20.738-20.737-20.738h-316.23c-11.435 0-20.738 9.303-20.738 20.737v17.69c0 11.435 9.303 20.737 20.737 20.737h16.506v18.046h-55.145c-22.162 0-40.138 18.062-40.104 40.332.109 68.961 48.055 128.862 115.452 143.969l47.798 10.715c9.252 9.387 19.284 18.004 29.994 25.737v10.195c0 32.83-11.715 64.394-33.054 89.257h-48.269c-13.086 0-23.732 10.646-23.732 23.732v67.119c0 13.086 10.646 23.732 23.732 23.732h249.875c13.086 0 23.732-10.646 23.732-23.732v-67.119c0-13.086-10.646-23.732-23.732-23.732h-48.269c-21.34-24.863-33.054-56.427-33.054-89.257v-8.362c3.366 3.055 7.72 4.893 12.411 5.116 2.537.121 4.542 2.126 4.663 4.663.395 8.331 5.826 15.262 13.426 17.884v44.286c0 3.755 2.025 7.245 5.286 9.108 3.229 1.845 7.265 1.855 10.529-.07l22.869-13.474 22.869 13.474c3.235 1.907 7.271 1.934 10.53.07 3.26-1.863 5.285-5.354 5.285-9.108v-44.285c7.606-2.621 13.031-9.559 13.427-17.884.121-2.537 2.125-4.542 4.663-4.663 6.797-.323 12.886-4.034 16.288-9.927 3.403-5.894 3.572-13.023.454-19.072-1.164-2.258-.431-4.996 1.707-6.369 5.724-3.679 9.142-9.937 9.143-16.741 0-6.806-3.418-13.064-9.143-16.744-2.137-1.373-2.871-4.111-1.707-6.369.318-.615.592-1.244.842-1.878zm9.599-135.602c13.969 0 25.125 11.456 25.104 25.309-.052 33.548-13.01 66.765-36.925 91.655-6.375-9.145-15.161-7.958-17.268-8.976 22.446-21.198 34.604-50.156 35.599-78.978.2-5.742-4.442-10.483-10.16-10.483h-51.538c.075-4.237.029-4.661.043-18.525h55.145zm-55.928 33.525h47.142c-1.875 21.685-10.981 43.063-26.735 59.673-1.626-2.275-3.739-4.219-6.253-5.67-5.891-3.401-13.021-3.571-19.069-.453-1.882.968-4.084.605-5.564-.771 5.508-17.183 9.017-34.855 10.479-52.779zm-257.184 86.984c-39.982-11.459-68.087-46.221-71.612-86.984h47.153c2.485 30.241 10.802 59.853 24.459 86.984zm-1.768 34.155c-60.463-13.553-103.636-67.294-103.733-129.355-.022-13.866 11.146-25.309 25.104-25.309h55.146c.013 14.123-.029 14.619.042 18.525h-51.538c-5.731 0-10.359 4.757-10.16 10.482 1.782 51.576 38.116 96.131 89.192 107.58l7.695 1.725c4.826 7.812 10.078 15.341 15.765 22.52zm19.662-32.421c-18.414-32.914-28.146-70.246-28.146-107.961v-47.328h32.06c4.143 0 7.5-3.357 7.5-7.5s-3.357-7.5-7.5-7.5h-63.566c-3.164 0-5.737-2.574-5.737-5.737v-17.69c0-3.164 2.573-5.737 5.737-5.737h316.23c3.164 0 5.737 2.573 5.737 5.737v17.69c0 3.163-2.573 5.737-5.737 5.737h-217.589c-4.143 0-7.5 3.357-7.5 7.5s3.357 7.5 7.5 7.5h186.083v47.328c0 21.231-3.034 42.222-9.026 62.526-1.545-.38-3.149-.582-4.785-.582-6.805.001-13.063 3.419-16.741 9.143-1.373 2.138-4.113 2.869-6.37 1.707-6.049-3.12-13.177-2.951-19.071.454-5.893 3.402-9.604 9.491-9.927 16.288-.121 2.538-2.126 4.542-4.663 4.663-6.798.323-12.888 4.035-16.29 9.93-3.402 5.893-3.571 13.022-.452 19.069 1.163 2.258.43 4.996-1.707 6.369-5.726 3.68-9.144 9.938-9.143 16.744 0 6.805 3.418 13.063 9.143 16.741 2.137 1.373 2.871 4.112 1.707 6.369-1.347 2.613-2.078 5.427-2.203 8.257-5.163 3.823-10.486 7.441-15.891 10.76-13.07 8.027-29.309 8.026-42.379-.001-32.14-19.734-58.861-47.562-77.274-80.476zm232.133 206.694v67.119c0 4.815-3.917 8.732-8.732 8.732h-249.875c-4.815 0-8.732-3.917-8.732-8.732v-67.119c0-4.815 3.917-8.732 8.732-8.732h249.875c4.815 0 8.732 3.917 8.732 8.732zm-76.091-23.732h-115.158c18.768-25.861 28.964-57.006 28.964-89.257v-.195c8.849 5.328 18.73 7.998 28.614 7.997 9.884 0 19.766-2.67 28.614-7.999v.196c.001 32.252 10.198 63.397 28.966 89.258zm60.545-44.378c-3.284-1.937-7.367-1.936-10.649 0l-18.36 10.817v-37.263c.191-.091.384-.176.573-.273 2.258-1.165 4.996-.431 6.369 1.707 3.679 5.724 9.937 9.142 16.741 9.143h.001c6.805 0 13.063-3.418 16.743-9.144 1.374-2.136 4.114-2.868 6.37-1.706.188.097.381.182.571.272v37.263zm61.789-96.112c-8.678 5.577-11.657 16.695-6.93 25.862 1.106 2.147.29 4.001-.112 4.697-.402.697-1.599 2.33-4.011 2.445-10.304.489-18.443 8.629-18.933 18.933-.115 2.413-1.749 3.609-2.446 4.013-.696.401-2.548 1.218-4.696.111-9.167-4.726-20.286-1.749-25.862 6.93-1.306 2.032-3.319 2.252-4.124 2.252-.805-.001-2.817-.22-4.123-2.251-3.791-5.901-10.145-9.167-16.706-9.167-3.088 0-6.223.724-9.156 2.236-2.149 1.105-4.002.29-4.697-.112-.697-.402-2.33-1.599-2.445-4.012-.489-10.304-8.629-18.443-18.933-18.933-2.413-.115-3.609-1.748-4.012-2.445-.767-1.327-.946-3.079-.111-4.697 4.727-9.168 1.747-20.286-6.931-25.862-2.031-1.306-2.251-3.318-2.251-4.123s.219-2.817 2.252-4.124c8.677-5.576 11.655-16.693 6.93-25.862-1.107-2.146-.291-4 .111-4.696.402-.697 1.599-2.331 4.012-2.446 10.304-.489 18.443-8.629 18.933-18.933.115-2.412 1.748-3.608 2.445-4.011.696-.402 2.55-1.218 4.696-.112 9.169 4.727 20.286 1.748 25.863-6.93 1.306-2.032 3.318-2.251 4.123-2.252 1.581 0 3.172.771 4.124 2.252 5.577 8.678 16.695 11.656 25.862 6.93 2.147-1.106 3.999-.29 4.697.111 3.138 1.818 1.965 4.039 3.156 8.383.006.021.011.041.018.062 2.252 8.117 9.435 14.083 18.204 14.5 2.412.115 3.608 1.749 4.011 2.446.402.696 1.219 2.55.112 4.696-4.727 9.168-1.748 20.286 6.93 25.862 2.032 1.306 2.252 3.319 2.252 4.124-.001.804-.22 2.817-2.252 4.123z" data-original="#000000"/><path class="" d="m368.8 209.04c-24.128 0-43.757 19.63-43.757 43.758s19.629 43.758 43.757 43.758 43.758-19.63 43.758-43.758-19.63-43.758-43.758-43.758zm0 72.516c-15.856 0-28.757-12.9-28.757-28.758s12.9-28.758 28.757-28.758 28.758 12.9 28.758 28.758-12.901 28.758-28.758 28.758z" data-original="#000000"/></g></g></svg>
