<?xml version="1.0" encoding="UTF-8"?>
<svg class="" width="50" height="40" enable-background="new 0 0 512 512" version="1.1" viewBox="0 0 512 512" xml:space="preserve" xmlns="http://www.w3.org/2000/svg">
<g xmlns="http://www.w3.org/2000/svg">
	<g fill="#000">
		<path class="" d="m201.68 213.61c-1.86 1.86-2.93 4.44-2.93 7.07s1.07 5.21 2.93 7.07c1.86 1.87 4.44 2.93 7.07 2.93s5.21-1.06 7.07-2.93c1.86-1.86 2.93-4.43 2.93-7.07 0-2.63-1.07-5.21-2.93-7.07s-4.44-2.93-7.07-2.93-5.21 1.071-7.07 2.93z" data-original="#000000"/>
		<path class="" d="m502 210.68h-253.25c-5.523 0-10 4.477-10 10s4.477 10 10 10h243.25v225.71h-292.34c-2.056-3.913-4.768-7.428-7.998-10.39 1.733-1.59 3.32-3.336 4.736-5.22h238.48c5.523 0 10-4.477 10-10 0-11.805 9.604-21.409 21.41-21.409 5.523 0 10-4.477 10-10v-111.67c0-5.523-4.477-10-10-10-11.805 0-21.41-9.604-21.41-21.41 0-5.523-4.477-10-10-10h-303.9c-5.523 0-10 4.477-10 10 0 11.805-9.604 21.41-21.41 21.41-5.523 0-10 4.477-10 10v36.298h-15.566v-55.213l38.103-38.103h56.649c5.523 0 10-4.477 10-10s-4.477-10-10-10h-36.649l75.692-75.692 35.425 35.426c1.875 1.875 4.419 2.929 7.071 2.929s5.196-1.054 7.071-2.929l81.516-81.516 14.353 14.354c2.606 2.607 6.435 3.57 9.963 2.502 3.528-1.066 6.184-3.986 6.911-7.6l17.345-86.184c0.661-3.282-0.365-6.677-2.732-9.044s-5.76-3.394-9.044-2.732l-86.184 17.344c-3.613 0.728-6.534 3.383-7.6 6.912s-0.104 7.357 2.501 9.963l11.66 11.661-45.762 45.762-35.425-35.426c-1.875-1.875-4.419-2.929-7.071-2.929s-5.196 1.054-7.071 2.929l-60.09 60.09c-3.905 3.905-3.905 10.237 0 14.143 3.905 3.905 10.237 3.905 14.143 0l53.019-53.019 35.425 35.426c1.875 1.875 4.419 2.929 7.071 2.929s5.196-1.054 7.071-2.929l59.904-59.904c3.905-3.905 3.905-10.236 0-14.142l-5.538-5.539 53.149-10.696-10.695 53.146-8.231-8.231c-1.875-1.875-4.419-2.929-7.071-2.929s-5.196 1.054-7.071 2.929l-81.516 81.516-35.425-35.426c-1.875-1.875-4.419-2.929-7.071-2.929s-5.196 1.054-7.071 2.929l-161.69 161.69-14.541-14.54 73.714-73.715c3.905-3.905 3.905-10.237 0-14.142s-10.237-3.904-14.142 0l-80.785 80.786c-1.875 1.875-2.929 4.419-2.929 7.071s1.054 5.196 2.929 7.071l28.683 28.682c1.953 1.953 4.512 2.929 7.071 2.929s5.119-0.977 7.071-2.929l7.894-7.894v35.213h-16c-20.953 0-38 17.047-38 38 0 11.071 4.761 21.048 12.341 28-7.579 6.952-12.341 16.93-12.341 28.001s4.761 21.048 12.341 28c-7.579 6.951-12.341 16.929-12.341 28 0 20.953 17.047 38 38 38h464c5.523 0 10-4.477 10-10v-281.32c0-5.523-4.477-10-10-10zm-392.43 85.798c14.815-3.687 26.502-15.374 30.189-30.189h286.34c3.687 14.815 15.374 26.502 30.189 30.189v94.11c-14.815 3.687-26.502 15.373-30.189 30.188h-222.21c0.067-0.919 0.113-1.844 0.113-2.78 0-11.071-4.761-21.048-12.341-28 7.579-6.952 12.341-16.929 12.341-28 0-20.953-17.047-38-38-38h-56.434v-27.518zm-89.566 65.519c0-9.925 8.075-18 18-18h128c9.925 0 18 8.075 18 18s-8.075 18-18 18h-128c-9.925 0-18-8.075-18-18zm0 56c0-9.925 8.075-18 18-18h128c9.925 0 18 8.075 18 18s-8.075 18-18 18h-128c-9.925 0-18-8.075-18-18zm44 74h-26c-9.925 0-18-8.075-18-18s8.075-18 18-18h128c9.925 0 18 8.075 18 18s-8.075 18-18 18h-102zm428 0h-292.54c2.538-4.699 4.109-9.992 4.46-15.61h288.08v15.61z" data-original="#000000"/>
		<path class="" d="m381.71 353.54h14.244c5.523 0 10-4.477 10-10s-4.477-10-10-10h-14.244c-5.523 0-10 4.477-10 10s4.477 10 10 10z" data-original="#000000"/>
		<path class="" d="m282.62 396.81c29.371 0 53.266-23.898 53.266-53.273s-23.895-53.273-53.266-53.273-53.265 23.898-53.265 53.273 23.895 53.273 53.265 53.273zm0-86.546c18.343 0 33.266 14.926 33.266 33.273s-14.923 33.273-33.266 33.273c-18.342 0-33.265-14.926-33.265-33.273s14.923-33.273 33.265-33.273z" data-original="#000000"/>
		<path class="" d="m119.56 161.99c2.63 0 5.21-1.06 7.07-2.93 1.86-1.86 2.93-4.44 2.93-7.07s-1.07-5.21-2.93-7.07-4.44-2.93-7.07-2.93-5.21 1.07-7.07 2.93c-1.87 1.87-2.93 4.44-2.93 7.07s1.06 5.21 2.93 7.07c1.86 1.87 4.44 2.93 7.07 2.93z" data-original="#000000"/>
	</g>
</g>















</svg>
