<?xml version="1.0" encoding="UTF-8"?>
<svg class="" width="50" height="40" enable-background="new 0 0 512 512" version="1.1" viewBox="0 0 512 512" xml:space="preserve" xmlns="http://www.w3.org/2000/svg"><g xmlns="http://www.w3.org/2000/svg"><circle cx="110.29" cy="76.755" r="7.5" fill="#000" data-original="#000000"/><g fill="#000"><path d="m207.54 472.5c4.142 0 7.5-3.358 7.5-7.5s-3.358-7.5-7.5-7.5h-33c-4.142 0-7.5 3.358-7.5 7.5s3.358 7.5 7.5 7.5z" data-original="#000000"/><path d="m371.246 167.483c-.816-4.003-4.235-6.96-8.314-7.19-4.079-.228-7.809 2.324-9.069 6.21-.028.085-.054.171-.079.257l-12.675 44.465-13.141-44.542c-.026-.089-.054-.178-.083-.266-1.301-3.875-5.055-6.391-9.137-6.115-4.078.274-7.465 3.268-8.252 7.366l-11.686 64.744c-.736 4.076 1.973 7.977 6.049 8.713 4.076.735 7.977-1.972 8.713-6.049l7.187-39.821 11.833 40.106c.026.089.054.177.083.264 1.234 3.676 4.659 6.138 8.533 6.137h.046c3.893-.02 7.316-2.521 8.517-6.223.028-.086.054-.172.079-.259l11.424-40.075 7.634 39.946c.778 4.069 4.705 6.738 8.774 5.959 4.069-.777 6.736-4.706 5.959-8.774z" data-original="#000000"/><path d="m268.84 194.508c-8.294-3.059-16.006-6.394-18.238-7.372-1.559-1.214-2.307-3.103-2.014-5.145.19-1.328 1.143-4.568 5.856-5.988 9.798-2.951 18.795 4.179 19.043 4.379 3.17 2.634 7.877 2.215 10.533-.943 2.665-3.171 2.255-7.902-.915-10.567-.614-.516-15.239-12.577-32.988-7.23-8.873 2.673-15.148 9.654-16.377 18.219-1.151 8.017 2.323 15.728 9.066 20.124.332.216.68.406 1.041.567.384.171 9.516 4.235 19.802 8.03 3.106 1.146 10.225 4.409 9.234 9.954-.722 4.044-5.562 8.228-12.412 8.228-6.833 0-13.417-2.763-17.611-7.392-2.781-3.069-7.523-3.303-10.594-.521-3.069 2.781-3.303 7.524-.521 10.594 6.99 7.714 17.729 12.319 28.726 12.319 13.618 0 25.048-8.66 27.178-20.591 1.598-8.947-2.504-20.651-18.809-26.665z" data-original="#000000"/><path d="m433.524 194.508c-8.294-3.059-16.006-6.394-18.238-7.372-3.522-2.744-2.759-9.144 3.842-11.133 9.798-2.951 18.795 4.179 19.043 4.379 3.169 2.634 7.876 2.215 10.533-.943 2.665-3.171 2.255-7.902-.915-10.567-.613-.516-15.239-12.577-32.988-7.23-19.001 5.724-22.018 28.755-7.312 38.343 2.069 1.347 17.144 7.232 20.842 8.597 3.106 1.146 10.225 4.409 9.234 9.954-.722 4.044-5.562 8.228-12.412 8.228-6.833 0-13.417-2.763-17.611-7.392-2.781-3.069-7.523-3.303-10.594-.521-3.069 2.781-3.303 7.524-.521 10.594 6.99 7.714 17.729 12.319 28.726 12.319 13.618 0 25.048-8.66 27.178-20.591 1.6-8.947-2.502-20.651-18.807-26.665z" data-original="#000000"/><path d="m135.85 84.255h59c4.142 0 7.5-3.358 7.5-7.5s-3.358-7.5-7.5-7.5h-59c-4.142 0-7.5 3.358-7.5 7.5s3.358 7.5 7.5 7.5z" data-original="#000000"/><path d="m442.17 97.5h-121.24v-34.654c0-12.04-9.795-21.835-21.835-21.835h-216.1c-12.04 0-21.835 9.795-21.835 21.835v352.35c0 12.04 9.795 21.835 21.835 21.835h216.1c12.04 0 21.835-9.795 21.835-21.835v-110.66h121.24c27.394 0 49.68-22.287 49.68-49.68v-107.68c0-27.393-22.286-49.68-49.68-49.68zm-359.18-41.49h216.1c3.769 0 6.835 3.066 6.835 6.835v34.655h-229.77v-34.654c0-3.769 3.066-6.836 6.835-6.836zm216.1 366.02h-216.1c-3.769 0-6.835-3.066-6.835-6.835v-302.7h128.61c-8.749 8.96-14.155 21.198-14.155 34.68v107.68c0 25.548 19.386 46.654 44.219 49.382v59.407c0 6.506 3.984 12.051 10.151 14.125 6.255 2.104 12.749-8e-3 16.625-5.117l44.326-58.418v100.96c-1e-3 3.769-3.067 6.835-6.836 6.835zm177.76-167.17c0 19.123-15.558 34.68-34.68 34.68h-128.74c-3.767-0.26-7.993 0.347-10.452 3.773l-53.15 70.041v-64.274c0-5.26-4.279-9.539-9.539-9.539-19.123 0-34.68-15.558-34.68-34.68v-107.68c0-19.123 15.558-34.68 34.68-34.68h201.88c19.123 0 34.68 15.558 34.68 34.68v107.68z" data-original="#000000"/><path d="m354.44 324.6c-4.142 0-7.5 3.358-7.5 7.5v141.54c0 12.881-10.479 23.361-23.361 23.361h-265.07c-12.881 0-23.361-10.48-23.361-23.361v-435.28c0-12.882 10.479-23.361 23.361-23.361h265.07c12.881 0 23.361 10.479 23.361 23.361v31.775c0 4.142 3.358 7.5 7.5 7.5s7.5-3.358 7.5-7.5v-31.775c-1e-3 -21.153-17.209-38.361-38.361-38.361h-265.07c-21.153 0-38.361 17.208-38.361 38.361v435.28c0 21.152 17.209 38.361 38.361 38.361h265.07c21.152 0 38.361-17.209 38.361-38.361v-141.54c-1e-3 -4.142-3.358-7.5-7.501-7.5z" data-original="#000000"/></g></g></svg>
